<svg
  width="1200"
  height="630"
  viewBox="0 0 1200 630"
  role="img"
  aria-labelledby="title desc"
  xmlns="http://www.w3.org/2000/svg"
>
  <title id="title">MindX Todo dashboard preview</title>
  <desc id="desc">
    A branded preview card showing the MindX Todo dashboard, task list, focus timer, and
    productivity panels.
  </desc>
  <defs>
    <linearGradient id="pageBg" x1="0" y1="0" x2="1200" y2="630" gradientUnits="userSpaceOnUse">
      <stop offset="0" stop-color="#14161f" />
      <stop offset="0.52" stop-color="#252a61" />
      <stop offset="1" stop-color="#0f766e" />
    </linearGradient>
    <linearGradient
      id="heroGlow"
      x1="158"
      y1="78"
      x2="1030"
      y2="578"
      gradientUnits="userSpaceOnUse"
    >
      <stop offset="0" stop-color="#e5e8ff" stop-opacity="0.52" />
      <stop offset="1" stop-color="#cdf3ec" stop-opacity="0.18" />
    </linearGradient>
    <filter
      id="softShadow"
      x="80"
      y="52"
      width="1040"
      height="552"
      color-interpolation-filters="sRGB"
      filterUnits="userSpaceOnUse"
    >
      <feDropShadow dx="0" dy="26" stdDeviation="24" flood-color="#000000" flood-opacity="0.3" />
    </filter>
  </defs>

  <rect width="1200" height="630" fill="url(#pageBg)" />
  <circle cx="1005" cy="130" r="168" fill="#5f5ce9" opacity="0.28" />
  <circle cx="206" cy="514" r="198" fill="#4fd1c5" opacity="0.2" />
  <path
    d="M79 456c113-111 243-163 390-155 135 8 251 67 348 177 76 86 171 105 285 57"
    fill="none"
    stroke="#ffffff"
    stroke-width="28"
    stroke-linecap="round"
    opacity="0.08"
  />

  <g filter="url(#softShadow)">
    <rect x="110" y="74" width="980" height="482" rx="42" fill="#f5f6fb" />
    <rect x="110" y="74" width="980" height="186" rx="42" fill="url(#heroGlow)" />
    <rect x="110" y="220" width="980" height="336" fill="#f5f6fb" />

    <g transform="translate(160 118)">
      <rect width="76" height="76" rx="20" fill="#4f46e5" />
      <circle cx="38" cy="38" r="23" fill="#ffffff" opacity="0.16" />
      <path
        d="m23 39 11 11 22-27"
        fill="none"
        stroke="#ffffff"
        stroke-width="8"
        stroke-linecap="round"
        stroke-linejoin="round"
      />
    </g>

    <text
      x="260"
      y="150"
      font-family="Inter, Segoe UI, Arial, sans-serif"
      font-size="24"
      font-weight="900"
      fill="#0f766e"
      letter-spacing="3"
    >
      FOCUSED WORK, LESS FRICTION
    </text>
    <text
      x="260"
      y="208"
      font-family="Inter, Segoe UI, Arial, sans-serif"
      font-size="56"
      font-weight="900"
      fill="#1e2233"
      letter-spacing="-2"
    >
      MindX Todo
    </text>
    <text
      x="260"
      y="248"
      font-family="Inter, Segoe UI, Arial, sans-serif"
      font-size="24"
      font-weight="600"
      fill="#585f78"
    >
      Plan tasks, protect focus, and turn daily momentum into visible progress.
    </text>

    <g transform="translate(160 306)">
      <rect width="520" height="184" rx="24" fill="#ffffff" stroke="#e2e5f0" />
      <text
        x="30"
        y="48"
        font-family="Inter, Segoe UI, Arial, sans-serif"
        font-size="25"
        font-weight="900"
        fill="#1e2233"
      >
        Today’s task flow
      </text>
      <text
        x="366"
        y="48"
        font-family="Inter, Segoe UI, Arial, sans-serif"
        font-size="17"
        font-weight="900"
        fill="#3730a3"
      >
        100 total
      </text>

      <g transform="translate(30 74)">
        <rect width="460" height="34" rx="17" fill="#edeff9" />
        <circle cx="23" cy="17" r="10" fill="#0f766e" />
        <path
          d="m17 17 5 5 10-12"
          fill="none"
          stroke="#ffffff"
          stroke-width="4"
          stroke-linecap="round"
          stroke-linejoin="round"
        />
        <rect x="48" y="11" width="190" height="12" rx="6" fill="#4f46e5" opacity="0.34" />
        <rect x="378" y="9" width="58" height="16" rx="8" fill="#cdf3ec" />
      </g>

      <g transform="translate(30 118)">
        <rect width="460" height="34" rx="17" fill="#edeff9" />
        <circle cx="23" cy="17" r="10" fill="#4f46e5" opacity="0.78" />
        <rect x="48" y="11" width="250" height="12" rx="6" fill="#1e2233" opacity="0.16" />
        <rect x="378" y="9" width="58" height="16" rx="8" fill="#e5e8ff" />
      </g>
    </g>

    <g transform="translate(720 306)">
      <rect width="150" height="184" rx="24" fill="#ffffff" stroke="#e2e5f0" />
      <text
        x="26"
        y="44"
        font-family="Inter, Segoe UI, Arial, sans-serif"
        font-size="18"
        font-weight="900"
        fill="#0f766e"
      >
        Focus
      </text>
      <text
        x="24"
        y="100"
        font-family="Inter, Segoe UI, Arial, sans-serif"
        font-size="42"
        font-weight="900"
        fill="#1e2233"
      >
        25
      </text>
      <text
        x="82"
        y="100"
        font-family="Inter, Segoe UI, Arial, sans-serif"
        font-size="20"
        font-weight="800"
        fill="#585f78"
      >
        min
      </text>
      <rect x="24" y="132" width="102" height="10" rx="5" fill="#e5e8ff" />
      <rect x="24" y="132" width="68" height="10" rx="5" fill="#4f46e5" />
    </g>

    <g transform="translate(896 306)">
      <rect width="144" height="84" rx="22" fill="#ffffff" stroke="#e2e5f0" />
      <text
        x="22"
        y="34"
        font-family="Inter, Segoe UI, Arial, sans-serif"
        font-size="17"
        font-weight="900"
        fill="#585f78"
      >
        Habits
      </text>
      <text
        x="22"
        y="64"
        font-family="Inter, Segoe UI, Arial, sans-serif"
        font-size="28"
        font-weight="900"
        fill="#0f766e"
      >
        8
      </text>
    </g>

    <g transform="translate(896 408)">
      <rect width="144" height="82" rx="22" fill="#ffffff" stroke="#e2e5f0" />
      <text
        x="22"
        y="33"
        font-family="Inter, Segoe UI, Arial, sans-serif"
        font-size="17"
        font-weight="900"
        fill="#585f78"
      >
        Score
      </text>
      <text
        x="22"
        y="63"
        font-family="Inter, Segoe UI, Arial, sans-serif"
        font-size="28"
        font-weight="900"
        fill="#3730a3"
      >
        420
      </text>
    </g>
  </g>
</svg>
